HIERARCHY
ROOT Hips
{
  OFFSET 1.44925e-005 102.336 -0.101585
  CHANNELS 6 Xposition Yposition Zposition Zrotation Xrotation Yrotation
  JOINT LeftUpLeg
  {
    OFFSET 8.9458 -8.66707 0.101652
    CHANNELS 3 Zrotation Xrotation Yrotation
    JOINT LeftLeg
    {
      OFFSET 0 -44.4227 1.3727
      CHANNELS 3 Zrotation Xrotation Yrotation
      JOINT LeftFoot
      {
        OFFSET -0.253549 -42.0924 -1.46059
        CHANNELS 3 Zrotation Xrotation Yrotation
        JOINT LeftToes
        {
          OFFSET -0.04 -4.41509 8.4991
          CHANNELS 3 Zrotation Xrotation Yrotation
          End Site
          {
            OFFSET 0.08 -0.047448 9.77979
          }
        }
      }
    }
  }
  JOINT Spine
  {
    OFFSET 0 11.8905 0
    CHANNELS 3 Zrotation Xrotation Yrotation
    JOINT Spine1
    {
      OFFSET 0 25.6574 0.127663
      CHANNELS 3 Zrotation Xrotation Yrotation
      JOINT RightShoulder
      {
        OFFSET -8.99 -0.362252 -0.22
        CHANNELS 3 Zrotation Xrotation Yrotation
        JOINT RightArm
        {
          OFFSET -10.2827 -0.00338 0.322123
          CHANNELS 3 Zrotation Xrotation Yrotation
          JOINT RightForeArm
          {
            OFFSET -26.364 0.099144 -1.42434
            CHANNELS 3 Zrotation Xrotation Yrotation
            JOINT RightHand
            {
              OFFSET -22.0324 0.085362 1.02216
              CHANNELS 3 Zrotation Xrotation Yrotation
              End Site
              {
                OFFSET -13.3284 -0.6 1.50291
              }
            }
          }
        }
      }
      JOINT LeftShoulder1
      {
        OFFSET 8.99 -0.362252 -0.22
        CHANNELS 3 Zrotation Xrotation Yrotation
        JOINT LeftArm
        {
          OFFSET 10.2827 -0.00337999 0.322123
          CHANNELS 3 Zrotation Xrotation Yrotation
          JOINT LeftForeArm
          {
            OFFSET 26.2597 0.099144 -1.42434
            CHANNELS 3 Zrotation Xrotation Yrotation
            JOINT LeftHand
            {
              OFFSET 22.0902 0.085362 1.02216
              CHANNELS 3 Zrotation Xrotation Yrotation
              End Site
              {
                OFFSET 13.419 -0.6 1.50291
              }
            }
          }
        }
      }
      JOINT Head
      {
        OFFSET 0 8.73416 0.011341
        CHANNELS 3 Zrotation Xrotation Yrotation
        End Site
        {
          OFFSET -0.29 12.7742 2.51395
        }
      }
    }
  }
  JOINT RightUpLeg
  {
    OFFSET -8.9458 -8.66707 0.101652
    CHANNELS 3 Zrotation Xrotation Yrotation
    JOINT RightLeg
    {
      OFFSET 0 -44.4227 1.3727
      CHANNELS 3 Zrotation Xrotation Yrotation
      JOINT RightFoot
      {
        OFFSET 0.253549 -42.0924 -1.46059
        CHANNELS 3 Zrotation Xrotation Yrotation
        JOINT RightToes
        {
          OFFSET 0.04 -4.41509 8.4991
          CHANNELS 3 Zrotation Xrotation Yrotation
          End Site
          {
            OFFSET -0.08 -0.137448 9.77979
          }
        }
      }
    }
  }
}
MOTION
Frames:	14
Frame Time:	0.0333333
188.822 102.918 5.21044 -4.53407 -0.716945 -96.8777 -0.789802 3.26895 3.32837 -0.768242 8.30623 22.8708 -3.04877 -10.8237 -0.0385187 -1.42915e-009 8.75192e-006 -1.47458e-008 2.68055 8.12461 0.711266 -5.0476 1.17677 1.84621 36.0136 1.70215 0.0315556 43.888 -16.7036 9.29398 8.78421 38.4259 7.51173 -10.6176 9.39366 0.522297 -44.1242 3.52469 -3.44093 -27.361 -4.37436 0.313007 -2.94599 28.9318 -18.4 5.82328 9.61819 -0.917488 -0.63326 -7.51078 -1.39628 -4.28866 3.34406 -5.48533 -1.72773 11.1303 -4.12463 6.25296 -13.825 0.142803 0.0462048 0.000530889 0.662642 
188.817 102.918 5.21463 -4.52561 -0.721911 -96.8691 -0.800415 3.25282 3.3121 -0.760074 8.32248 22.8741 -3.04509 -10.8311 -0.0385197 -1.42915e-009 8.75192e-006 -1.47458e-008 2.74605 8.13195 0.694159 -5.15478 1.13847 1.85192 36.1088 1.70215 0.0315556 43.8549 -16.7359 9.24209 8.706 38.5135 7.59405 -10.4418 9.40926 0.441418 -44.0387 3.51675 -3.4409 -27.4148 -4.50408 0.324662 -2.92674 29.1031 -18.368 5.82328 9.61819 -0.917488 -0.561501 -7.45341 -1.42149 -4.30228 3.35444 -5.50224 -1.71647 11.1036 -4.11082 6.29076 -13.8262 0.142804 0.0462048 0.000530889 0.662642 
188.808 102.918 5.22152 -4.53122 -0.71817 -96.8671 -0.807401 3.2539 3.30444 -0.753462 8.34434 22.8777 -3.03189 -10.8403 -0.0385209 -1.42915e-009 8.75192e-006 -1.47458e-008 2.76315 8.0015 0.692117 -5.15527 1.32842 1.85985 36.1189 1.70215 0.0335002 43.9165 -16.9608 9.28004 8.57116 38.8905 7.65381 -10.1956 9.4355 0.268482 -44.0561 3.51881 -3.4409 -27.398 -4.78621 0.256386 -3.065 29.195 -18.1779 5.82328 9.61819 -0.917488 -0.371426 -7.35379 -1.35222 -4.30972 3.37233 -5.51278 -1.71124 11.098 -4.0907 6.35097 -13.826 0.142804 0.0462048 0.000530889 0.662642 
188.796 102.918 5.22751 -4.55248 -0.707562 -96.8623 -0.811671 3.27862 3.31818 -0.755989 8.35909 22.8573 -3.03586 -10.854 -0.0385226 -1.42915e-009 8.75192e-006 -1.47458e-008 2.74953 7.92349 0.689396 -5.08745 1.47688 1.85919 36.0434 1.70215 0.039258 44.0101 -17.1679 9.30632 8.46469 39.284 7.67534 -9.99115 9.45415 0.15786 -44.1171 3.52415 -3.44092 -27.3673 -5.0866 0.189182 -3.23001 29.3091 -17.9522 5.82328 9.61819 -0.917488 -0.312561 -7.33691 -1.32464 -4.30051 3.40022 -5.50324 -1.72033 11.1086 -4.10303 6.32532 -13.8156 0.142798 0.0462048 0.000530889 0.662642 
188.783 102.918 5.23234 -4.54578 -0.70977 -96.8515 -0.811973 3.27622 3.33106 -0.766888 8.36493 22.8331 -3.07204 -10.8718 -0.0385249 -1.42915e-009 8.75192e-006 -1.47458e-008 2.81995 8.08115 0.689208 -5.17799 1.24641 1.86621 36.0643 1.70215 0.0359629 43.9807 -17.1619 9.14883 8.39058 39.4341 7.74851 -9.77982 9.4623 0.184297 -44.0287 3.51502 -3.44089 -27.4641 -5.17874 0.255883 -3.16502 29.5545 -17.9548 5.82328 9.61819 -0.917488 -0.615337 -7.58762 -1.50093 -4.30056 3.41016 -5.49819 -1.72388 11.0941 -4.12223 6.25731 -13.8344 0.142809 0.0462048 0.000530889 0.662642 
188.774 102.918 5.2384 -4.49643 -0.72709 -96.8509 -0.80819 3.23407 3.33209 -0.788631 8.35138 22.8379 -3.07195 -10.8777 -0.0385257 -1.42915e-009 8.75192e-006 -1.47458e-008 2.93106 8.33556 0.695232 -5.34633 0.83553 1.88742 36.1443 1.70215 0.0270296 43.9024 -17.1321 8.89801 8.2997 39.5006 7.86602 -9.75967 9.46027 0.223789 -43.8775 3.50075 -3.44084 -27.6223 -4.99588 0.424034 -2.91555 29.6763 -18.2048 5.82328 9.61819 -0.917488 -1.12175 -8.10693 -1.73296 -4.33315 3.37759 -5.53142 -1.69737 11.0651 -4.08451 6.28751 -13.8747 0.142834 0.0462048 0.000530889 0.662642 
188.762 102.918 5.24757 -4.45757 -0.740531 -96.8644 -0.806287 3.2219 3.33914 -0.819478 8.30386 22.8487 -3.01422 -10.8678 -0.0385244 -1.42915e-009 8.75192e-006 -1.47458e-008 2.91765 8.43388 0.717264 -5.28628 0.707835 1.89737 36.0414 1.70215 0.0330665 43.9914 -17.2934 8.79503 8.22247 39.6181 7.91068 -10.2468 9.44109 0.167816 -43.9372 3.50632 -3.44086 -27.6234 -4.86541 0.501677 -2.80282 29.6061 -18.3528 5.82328 9.61819 -0.917488 -1.48426 -8.62216 -1.78014 -4.37785 3.34784 -5.58996 -1.6552 11.0502 -4.01109 6.34922 -13.87 0.142831 0.0462048 0.000530889 0.662642 
188.742 102.918 5.25828 -4.45765 -0.7453 -96.8809 -0.809226 3.26646 3.35864 -0.845833 8.24325 22.8399 -2.98766 -10.8676 -0.0385244 -1.42915e-009 8.75192e-006 -1.47458e-008 2.78076 8.2817 0.763407 -5.01071 1.02555 1.89572 35.7525 1.70215 0.0514775 44.2459 -17.5078 8.92438 8.24106 39.6157 7.83812 -10.9338 9.41136 0.12655 -44.217 3.53104 -3.44095 -27.4251 -5.19295 0.319169 -2.98079 29.7846 -18.0956 5.82328 9.61819 -0.917488 -1.62783 -8.91556 -1.70877 -4.39804 3.36312 -5.61394 -1.64553 11.0379 -3.98609 6.28665 -13.8393 0.142812 0.0462048 0.000530889 0.662642 
188.715 102.918 5.26716 -4.43896 -0.754211 -96.894 -0.819382 3.27444 3.36668 -0.856273 8.22243 22.8448 -3.02119 -10.8906 -0.0385273 -1.42915e-009 8.75192e-006 -1.47458e-008 2.70908 7.93626 0.811747 -4.85907 1.60134 1.92503 35.5929 1.70142 0.0559664 44.4144 -17.5663 9.1792 8.31884 39.4698 7.75386 -11.0075 9.39854 0.236147 -44.4263 3.54822 -3.44067 -27.2411 -5.84988 -0.091703 -3.25463 30.3856 -17.6121 5.82328 9.61819 -0.917488 -1.71203 -9.07491 -1.76817 -4.39357 3.36364 -5.58089 -1.67712 11.0215 -4.01592 6.22491 -13.8712 0.142832 0.0462048 0.000530889 0.662642 
188.695 102.918 5.27449 -4.3659 -0.762019 -96.888 -0.825961 3.1908 3.35089 -0.853805 8.25251 22.8695 -3.02134 -10.9097 -0.0385298 -1.42915e-009 8.75192e-006 -1.47458e-008 2.75509 7.58056 0.844784 -4.90285 2.12662 1.98063 35.6988 1.6987 0.0417256 44.3609 -17.5053 9.40896 8.33413 39.4156 7.76515 -10.3624 9.41565 0.412538 -44.4439 3.54937 -3.44058 -27.2071 -6.12754 -0.450326 -3.3673 30.6916 -17.4016 5.82328 9.61819 -0.917488 -1.73879 -9.15398 -1.95232 -4.38899 3.29699 -5.54826 -1.69376 11.0232 -4.04358 6.33661 -13.9219 0.142863 0.0462048 0.000530889 0.662642 
188.675 102.918 5.28482 -4.30403 -0.752785 -96.8523 -0.815002 3.11577 3.33697 -0.850554 8.28498 22.8509 -2.97826 -10.9146 -0.0385305 -1.42915e-009 8.75192e-006 -1.47458e-008 2.75656 7.50205 0.848943 -4.85318 2.26886 1.98058 35.8095 1.69552 0.0326891 44.2365 -17.412 9.47725 8.29 39.428 7.84102 -9.90642 9.43129 0.506907 -44.4731 3.55524 -3.44769 -27.198 -5.6424 -0.444617 -3.30435 30.0887 -17.6459 5.82328 9.61819 -0.917488 -1.56624 -8.88657 -2.04263 -4.39014 3.24777 -5.56272 -1.66574 11.0256 -4.06233 6.41465 -13.8798 0.140244 0.0462048 0.000530889 0.662642 
188.635 102.916 5.29978 -4.29945 -0.743553 -96.8406 -0.806429 3.13286 3.35302 -0.865252 8.29429 22.8057 -2.99563 -10.9492 -0.0385349 -1.42915e-009 8.75192e-006 -1.47458e-008 2.64135 7.77764 0.8338 -4.63768 1.93386 1.91007 35.7156 1.69247 0.0358906 44.2251 -17.2749 9.35616 8.30605 39.2752 7.86954 -10.1589 9.4143 0.558244 -44.6305 3.57633 -3.46527 -27.1142 -4.94217 -0.0982214 -3.22136 29.1777 -18.0071 5.82328 9.61819 -0.917488 -1.23803 -8.23016 -1.97019 -4.39497 3.28168 -5.58242 -1.65083 11.0005 -4.0681 6.28526 -13.8383 0.132046 0.0462048 0.000530889 0.662642 
188.574 102.906 5.31516 -4.28979 -0.759244 -96.9201 -0.818567 3.16272 3.39408 -0.913524 8.30981 22.846 -3.04017 -11.0297 -0.0385455 -1.42915e-009 8.75192e-006 -1.47458e-008 2.57591 8.06212 0.831207 -4.56485 1.53054 1.87768 35.6082 1.6912 0.0343415 44.2906 -17.1478 9.22623 8.38391 39.069 7.83032 -10.5133 9.38753 0.662194 -44.7005 3.5888 -3.47905 -27.0869 -4.64234 0.202655 -3.14712 28.8603 -18.1883 5.82328 9.61819 -0.917488 -1.03303 -7.8818 -1.85161 -4.41583 3.29093 -5.56288 -1.69164 11.0087 -3.99749 6.27619 -13.9526 0.13729 0.0462048 0.000530889 0.662642 
188.515 102.894 5.32733 -4.23344 -0.773242 -97.0242 -0.819123 3.12676 3.43785 -0.975474 8.35431 22.9294 -2.98671 -11.1023 -0.038555 -1.42915e-009 8.75192e-006 -1.47458e-008 2.69409 8.02616 0.841081 -4.78321 1.54965 1.93565 35.7543 1.69372 0.0239078 44.2516 -17.1001 9.26855 8.39407 39.0277 7.83822 -10.4632 9.38883 0.677615 -44.4858 3.56708 -3.46886 -27.2613 -4.61607 0.171773 -3.00743 29.0644 -18.2888 5.82328 9.61819 -0.917488 -1.18627 -8.49432 -1.81557 -4.44581 3.21079 -5.54721 -1.72225 11.0939 -3.8756 6.53399 -14.0833 0.15843 0.0462048 0.000530889 0.662642 
